Coordinates
version=1
nRows=24
nColumns=38
inDegrees=no

Units are S.I. units (second, meters, Newtons, ...)
If the header above contains a line with 'inDegrees', this indicates whether rotational values are in degrees (yes) or radians (no).

endheader
time	pelvis_tilt	pelvis_list	pelvis_rotation	pelvis_tx	pelvis_ty	pelvis_tz	hip_flexion_r	hip_adduction_r	hip_rotation_r	knee_angle_r	ankle_angle_r	subtalar_angle_r	mtp_angle_r	hip_flexion_l	hip_adduction_l	hip_rotation_l	knee_angle_l	ankle_angle_l	subtalar_angle_l	mtp_angle_l	lumbar_extension	lumbar_bending	lumbar_rotation	arm_flex_r	arm_add_r	arm_rot_r	elbow_flex_r	pro_sup_r	wrist_flex_r	wrist_dev_r	arm_flex_l	arm_add_l	arm_rot_l	elbow_flex_l	pro_sup_l	wrist_flex_l	wrist_dev_l
3.245	-0.114763	0.0678274	0.0310775	1.79065	1.01375	-0.523996	0.380916	-0.11872	0.0368812	1.19085	-0.0770589	-0.000180464	-0.0117021	0.263607	0.0998964	0.059756	0.339782	0.0960399	0.0818877	-0.00922108	-0.098368	-0.0651352	-0.0912938	-0.12461	-0.110171	-0.130913	0.631875	1.16226	-0.00328011	0.000992806	-0.0640362	-0.216795	-0.142843	0.578492	1.27052	-2.7407e-05	0.000466441
3.25	-0.112724	0.0641906	0.030708	1.79613	1.0146	-0.524021	0.393783	-0.113571	0.0364347	1.19131	-0.0690595	-0.000634425	-0.0117021	0.253176	0.0960359	0.0627837	0.335283	0.0983759	0.0818738	-0.00922108	-0.10134	-0.0606593	-0.0932403	-0.127322	-0.110417	-0.129141	0.625981	1.16281	-0.00328011	0.000992806	-0.0584603	-0.216641	-0.139647	0.581214	1.26835	-2.7407e-05	0.000466441
3.255	-0.110618	0.060491	0.0303528	1.8016	1.01543	-0.524037	0.406282	-0.108432	0.0357743	1.19053	-0.0613339	-0.00103194	-0.0117021	0.242649	0.0921052	0.0658821	0.33071	0.100699	0.0817166	-0.00922108	-0.104381	-0.0560989	-0.0951117	-0.130168	-0.110728	-0.127482	0.620263	1.16327	-0.00328011	0.000992806	-0.0527128	-0.216404	-0.13651	0.583897	1.26609	-2.7407e-05	0.000466441
3.26	-0.108451	0.0567464	0.0300195	1.80706	1.01622	-0.524047	0.418412	-0.103332	0.034913	1.18856	-0.0538778	-0.00137203	-0.0117021	0.232033	0.0881238	0.0690351	0.326068	0.103012	0.0814224	-0.00922108	-0.107488	-0.0514715	-0.0969189	-0.133122	-0.111091	-0.125946	0.614696	1.16365	-0.00328011	0.000992806	-0.0468123	-0.216089	-0.133431	0.586564	1.26373	-2.7407e-05	0.000466441
3.265	-0.106228	0.0529727	0.029718	1.81251	1.01698	-0.524051	0.43017	-0.0983024	0.0338614	1.18542	-0.0466813	-0.00165396	-0.0117021	0.22134	0.0841097	0.0722292	0.321366	0.105319	0.0809972	-0.00922108	-0.110658	-0.046793	-0.098676	-0.136161	-0.11149	-0.124543	0.609258	1.16393	-0.00328011	0.000992806	-0.040778	-0.215704	-0.13041	0.589234	1.26129	-2.7407e-05	0.000466441
3.27	-0.103956	0.0491844	0.0294598	1.81796	1.01769	-0.524051	0.441552	-0.0933683	0.0326276	1.18111	-0.0397318	-0.00187742	-0.0117021	0.21058	0.0800796	0.0754535	0.316612	0.107621	0.0804477	-0.00922108	-0.113888	-0.042078	-0.100399	-0.139258	-0.11191	-0.123284	0.603924	1.16413	-0.00328011	0.000992806	-0.0346296	-0.215259	-0.127447	0.591929	1.25879	-2.7407e-05	0.000466441
3.275	-0.101642	0.0453946	0.0292572	1.8234	1.01837	-0.524049	0.452555	-0.0885538	0.0312175	1.17566	-0.0330158	-0.0020428	-0.0117021	0.199766	0.0760485	0.0786983	0.311815	0.109923	0.0797824	-0.00922108	-0.117173	-0.03734	-0.102107	-0.142386	-0.112337	-0.122181	0.598675	1.16427	-0.00328011	0.000992806	-0.0283875	-0.214762	-0.124547	0.594668	1.25625	-2.7407e-05	0.000466441
3.28	-0.0992967	0.0416154	0.0291241	1.82883	1.019	-0.524046	0.463174	-0.0838808	0.0296348	1.16907	-0.0265212	-0.00215139	-0.0117021	0.188913	0.07203	0.081957	0.306982	0.112226	0.0790104	-0.00922108	-0.120507	-0.0325916	-0.10382	-0.145521	-0.112757	-0.121244	0.59349	1.16438	-0.00328011	0.000992806	-0.0220724	-0.214223	-0.121717	0.597472	1.25373	-2.7407e-05	0.000466441
3.285	-0.0969299	0.0378579	0.0290753	1.83426	1.01958	-0.524043	0.4734	-0.0793697	0.0278812	1.16134	-0.0202395	-0.00220568	-0.0117021	0.178036	0.0680366	0.0852259	0.302121	0.114533	0.0781412	-0.00922108	-0.123881	-0.0278443	-0.105557	-0.148639	-0.113158	-0.120487	0.588356	1.16449	-0.00328011	0.000992806	-0.0157054	-0.213653	-0.118968	0.60036	1.25126	-2.7407e-05	0.000466441
3.29	-0.0945535	0.0341331	0.0291265	1.83968	1.02011	-0.524042	0.483223	-0.0750397	0.0259563	1.15245	-0.0141676	-0.00220952	-0.0117021	0.16715	0.0640797	0.0885036	0.297236	0.116844	0.077185	-0.00922108	-0.127286	-0.0231096	-0.107341	-0.151719	-0.113529	-0.119922	0.58326	1.16464	-0.00328011	0.000992806	-0.00930821	-0.213064	-0.116311	0.603352	1.24892	-2.7407e-05	0.000466441
3.295	-0.0921832	0.0304526	0.0292929	1.84509	1.0206	-0.524043	0.492633	-0.0709099	0.0238599	1.14239	-0.00831022	-0.00216834	-0.0117021	0.156276	0.0601707	0.0917873	0.292332	0.119161	0.0761566	-0.00922108	-0.130705	-0.0183998	-0.109193	-0.15474	-0.11386	-0.119557	0.578193	1.16487	-0.00328011	0.000992806	-0.0029034	-0.212466	-0.113755	0.606464	1.24673	-2.7407e-05	0.000466441
3.3	-0.089838	0.0268286	0.0295896	1.8505	1.02103	-0.524047	0.501616	-0.0669992	0.0215916	1.13113	-0.00268174	-0.00208918	-0.0117021	0.145434	0.0563206	0.0950726	0.287413	0.121485	0.0750757	-0.00922108	-0.134118	-0.0137288	-0.111134	-0.15769	-0.114144	-0.119391	0.573151	1.16519	-0.00328011	0.000992806	0.00348579	-0.211876	-0.111297	0.609715	1.2447	-2.7407e-05	0.000466441
3.305	-0.0875403	0.023275	0.0300307	1.8559	1.02141	-0.524056	0.510161	-0.0633267	0.0191519	1.11863	0.00269187	-0.00198067	-0.0117021	0.134652	0.0525409	0.0983523	0.282484	0.123816	0.0739668	-0.00922108	-0.137498	-0.00911231	-0.113182	-0.160557	-0.114375	-0.119416	0.568132	1.16556	-0.00328011	0.000992806	0.00983533	-0.21131	-0.108921	0.613122	1.24279	-2.7407e-05	0.000466441
3.31	-0.0853166	0.0198072	0.030629	1.86129	1.02173	-0.524069	0.518254	-0.0599125	0.0165424	1.10485	0.0077721	-0.00185267	-0.0117021	0.123959	0.0488441	0.101616	0.277548	0.126154	0.0728594	-0.00922108	-0.140813	-0.0045688	-0.115357	-0.163335	-0.114551	-0.119618	0.563138	1.16596	-0.00328011	0.000992806	0.0161204	-0.210785	-0.106607	0.616701	1.24093	-2.7407e-05	0.000466441
3.315	-0.0831952	0.0164421	0.0313963	1.86669	1.02199	-0.524087	0.52588	-0.0567775	0.013766	1.08973	0.0125076	-0.00171587	-0.0117021	0.11339	0.045244	0.104852	0.272614	0.128497	0.0717828	-0.00922108	-0.144025	-0.000119078	-0.117675	-0.166021	-0.114668	-0.119979	0.558175	1.16635	-0.00328011	0.000992806	0.0223162	-0.21032	-0.104336	0.620465	1.23905	-2.7407e-05	0.000466441
3.32	-0.0812056	0.0131982	0.0323437	1.87208	1.02218	-0.524111	0.533021	-0.0539434	0.010826	1.07321	0.0168351	-0.00158102	-0.0117021	0.102978	0.041756	0.10805	0.267687	0.130842	0.0707638	-0.00922108	-0.147094	0.00421382	-0.120153	-0.168619	-0.114725	-0.120488	0.553251	1.16668	-0.00328011	0.000992806	0.028398	-0.209932	-0.10209	0.624428	1.23711	-2.7407e-05	0.000466441
3.325	-0.0793784	0.0100952	0.0334807	1.87748	1.02232	-0.524141	0.539661	-0.0514319	0.00772786	1.05526	0.0206811	-0.00145816	-0.0117021	0.0927604	0.0383974	0.111202	0.262777	0.133184	0.0698276	-0.00922108	-0.149979	0.00840446	-0.122806	-0.171135	-0.11472	-0.121131	0.548375	1.16692	-0.00328011	0.000992806	0.0343425	-0.209637	-0.0998553	0.6286	1.23507	-2.7407e-05	0.000466441
3.33	-0.0777426	0.00715345	0.0348153	1.88288	1.02239	-0.524176	0.545783	-0.049264	0.00447805	1.0358	0.0239659	-0.00135591	-0.0117021	0.082773	0.0351864	0.114302	0.257895	0.135516	0.0689919	-0.00922108	-0.152639	0.0124265	-0.125647	-0.173579	-0.11465	-0.121901	0.543562	1.16706	-0.00328011	0.000992806	0.040128	-0.209449	-0.097624	0.63299	1.23292	-2.7407e-05	0.000466441
3.335	-0.0763232	0.00439268	0.0363542	1.88829	1.02239	-0.524216	0.551364	-0.0474583	0.00108391	1.0148	0.0266078	-0.00128079	-0.0117021	0.0730462	0.0321415	0.117353	0.253051	0.13783	0.0682647	-0.00922108	-0.155036	0.0162539	-0.128689	-0.175965	-0.114513	-0.122795	0.538828	1.16706	-0.00328011	0.000992806	0.0457362	-0.20938	-0.0953912	0.637603	1.23067	-2.7407e-05	0.000466441
3.34	-0.0751398	0.00183111	0.0381027	1.89371	1.02232	-0.524262	0.556385	-0.0460291	-0.00244599	0.992227	0.0285287	-0.00123677	-0.0117021	0.0636037	0.0292805	0.120365	0.248255	0.140117	0.0676456	-0.00922108	-0.157143	0.0198622	-0.131941	-0.178305	-0.114305	-0.12381	0.53419	1.16693	-0.00328011	0.000992806	0.0511523	-0.209441	-0.0931538	0.642442	1.22833	-2.7407e-05	0.000466441
3.345	-0.074206	-0.000515515	0.0400636	1.89914	1.02218	-0.524312	0.560824	-0.044985	-0.00610116	0.968063	0.0296609	-0.00122512	-0.0117021	0.054461	0.0266184	0.12335	0.243513	0.142367	0.0671315	-0.00922108	-0.158935	0.0232299	-0.135412	-0.180615	-0.114026	-0.124946	0.529666	1.16665	-0.00328011	0.000992806	0.0563657	-0.209639	-0.0909081	0.647507	1.22591	-2.7407e-05	0.000466441
3.35	-0.0735299	-0.00263436	0.0422369	1.90459	1.02198	-0.524366	0.564665	-0.0443271	-0.00986827	0.942317	0.0299524	-0.00124399	-0.0117021	0.0456266	0.0241672	0.126321	0.238832	0.144575	0.0667168	-0.00922108	-0.160399	0.0263382	-0.139105	-0.18291	-0.113672	-0.126205	0.525276	1.16622	-0.00328011	0.000992806	0.0613699	-0.209981	-0.0886514	0.652794	1.22342	-2.7407e-05	0.000466441
3.355	-0.073114	-0.00451603	0.0446186	1.91005	1.0217	-0.524422	0.567899	-0.0440486	-0.0137306	0.915021	0.0293737	-0.00128848	-0.0117021	0.0371018	0.0219351	0.129294	0.234218	0.146736	0.0663951	-0.00922108	-0.161527	0.0291726	-0.143019	-0.185201	-0.113243	-0.127586	0.521038	1.16564	-0.00328011	0.000992806	0.0661627	-0.21047	-0.0863819	0.658296	1.2209	-2.7407e-05	0.000466441
3.36	-0.0729543	-0.00615526	0.0472005	1.91553	1.02135	-0.52448	0.57052	-0.0441339	-0.0176677	0.886233	0.0279213	-0.0013512	-0.0117021	0.0288806	0.0199255	0.132278	0.229676	0.14885	0.0661622	-0.00922108	-0.162322	0.0317229	-0.147147	-0.187499	-0.112738	-0.129092	0.516969	1.16495	-0.00328011	0.000992806	0.0707465	-0.211107	-0.084099	0.664004	1.21837	-2.7407e-05	0.000466441
